<?xml version="1.0" standalone="no"?>
<!DOCTYPE svg PUBLIC "-//W3C//DTD SVG 20010904//EN"
 "http://www.w3.org/TR/2001/REC-SVG-20010904/DTD/svg10.dtd">
<svg version="1.0" xmlns="http://www.w3.org/2000/svg"
 width="100.000000pt" height="97.000000pt" viewBox="0 0 100.000000 97.000000"
 preserveAspectRatio="xMidYMid meet">
<g transform="translate(0.000000,97.000000) scale(0.100000,-0.100000)"
fill="#000000" stroke="none">
<path d="M430 960 c-238 -42 -420 -245 -420 -469 1 -267 225 -481 505 -481
180 0 355 96 440 242 19 32 35 60 35 62 0 1 -18 17 -40 34 l-39 32 -20 -45
c-29 -66 -114 -151 -186 -185 -175 -84 -369 -49 -498 89 -211 225 -69 578 250
624 50 8 89 8 123 1 l50 -11 24 41 c28 47 26 50 -52 64 -52 9 -53 9 -33 -10
15 -13 29 -17 48 -12 22 4 25 3 13 -5 -13 -9 -13 -11 3 -11 16 0 17 -1 1 -26
-10 -14 -20 -21 -23 -16 -7 11 -181 10 -198 -1 -7 -5 -17 -5 -23 -2 -5 3 -10
1 -10 -5 0 -8 -6 -8 -21 0 -11 6 -25 9 -32 6 -7 -2 -5 -5 5 -5 9 -1 19 -5 22
-9 3 -5 -9 -7 -27 -5 -21 2 -26 0 -15 -4 14 -7 9 -12 -23 -27 -21 -11 -39 -23
-39 -28 0 -5 -5 -6 -11 -3 -6 4 -8 13 -5 21 3 8 2 13 -2 11 -4 -1 -8 1 -10 6
-6 20 0 29 28 38 17 6 30 14 30 18 0 4 13 7 29 6 19 -1 28 2 24 10 -2 7 8 15
24 19 15 4 37 9 48 13 19 5 20 5 1 -9 -15 -12 -16 -17 -6 -23 8 -5 11 -4 7 2
-7 10 40 38 59 35 6 -1 11 5 11 13 0 8 -1 14 -1 14 -1 -1 -21 -5 -46 -9z
m-222 -117 c-1 -5 4 -19 11 -32 10 -18 10 -25 0 -35 -9 -8 -10 -8 -6 0 8 13
-12 31 -30 28 -23 -3 -24 -4 -18 -14 5 -8 11 -8 19 -1 17 14 25 5 19 -20 -6
-23 -11 -24 -34 -3 -16 14 -19 13 -39 -8 -13 -13 -19 -16 -15 -8 8 14 87 99
93 100 1 0 1 -3 0 -7z m-36 -110 c-6 -3 -10 -8 -7 -13 2 -4 -4 -15 -15 -25
-11 -10 -20 -24 -20 -32 0 -7 -5 -13 -11 -13 -6 0 -9 -6 -7 -12 3 -7 0 -18 -7
-24 -6 -6 -12 -46 -13 -88 -2 -43 -7 -88 -12 -101 -7 -19 -6 -23 4 -19 16 6
38 -78 28 -105 -5 -14 -4 -14 13 -1 17 14 18 13 12 -2 -3 -10 -3 -17 1 -15 13
3 72 -69 64 -78 -4 -5 -2 -6 3 -2 6 3 29 -12 52 -33 23 -21 56 -41 72 -45 17
-4 31 -10 31 -14 0 -11 22 -13 150 -16 66 -2 120 2 128 7 6 6 27 8 45 4 19 -3
27 -2 19 2 -10 7 -4 13 19 25 18 8 37 13 43 10 5 -4 6 -1 2 6 -5 8 0 14 13 18
12 3 21 11 21 17 0 7 20 31 44 55 25 24 50 57 56 72 13 30 23 32 51 10 20 -16
15 -31 -20 -68 -12 -12 -21 -26 -21 -30 0 -4 -20 -27 -44 -51 -31 -31 -48 -41
-62 -36 -14 4 -15 3 -6 -4 10 -7 7 -13 -15 -28 -15 -10 -34 -17 -42 -16 -8 2
-10 -1 -5 -10 4 -7 4 -10 -1 -6 -4 4 -21 0 -37 -8 -17 -9 -39 -14 -49 -11 -11
3 -17 2 -14 -3 14 -23 -199 -28 -229 -5 -11 8 -25 15 -30 15 -6 0 -4 -5 4 -11
11 -8 9 -9 -10 -4 -45 13 -90 37 -84 46 3 5 -1 6 -9 3 -8 -3 -17 2 -21 11 -3
9 -11 15 -18 14 -19 -3 -48 12 -48 24 0 7 4 7 12 -1 9 -9 16 -8 29 4 11 10 19
12 24 5 3 -6 11 -11 18 -11 6 0 2 6 -9 14 -17 13 -21 12 -37 -1 -15 -14 -21
-12 -19 7 0 3 -8 6 -18 6 -10 0 -16 -5 -14 -11 14 -27 -68 75 -83 105 -10 19
-20 37 -23 40 -3 3 -7 16 -8 30 0 14 -5 26 -10 28 -6 2 -7 12 -4 24 3 13 1 19
-5 15 -11 -7 -12 2 -13 82 -1 71 10 141 22 141 5 0 6 5 3 10 -3 6 -1 10 5 10
7 0 10 7 6 15 -3 8 -1 15 5 15 6 0 7 5 4 10 -4 6 13 29 36 50 40 36 45 38 59
24 11 -13 12 -18 2 -21z"/>
<path d="M936 294 c-5 -14 -4 -15 9 -4 17 14 19 20 6 20 -5 0 -12 -7 -15 -16z"/>
<path d="M148 254 c11 -21 42 -51 42 -41 0 3 -12 19 -26 34 -19 20 -24 22 -16
7z"/>
<path d="M134 219 c1 -7 10 -13 19 -15 9 -1 15 2 11 7 -3 5 -9 7 -14 4 -4 -3
-11 0 -13 5 -3 6 -4 5 -3 -1z"/>
<path d="M828 210 c-14 -16 -14 -19 -2 -24 8 -3 13 -2 10 3 -3 5 2 15 11 22
15 12 16 12 9 -6 -5 -15 -4 -17 5 -8 11 11 5 34 -9 32 -4 0 -15 -9 -24 -19z"/>
<path d="M176 192 c-3 -5 1 -9 9 -9 8 0 12 4 9 9 -3 4 -7 8 -9 8 -2 0 -6 -4
-9 -8z"/>
<path d="M324 76 c11 -9 24 -16 30 -16 12 0 7 5 -24 19 -24 11 -24 11 -6 -3z"/>
<path d="M259 741 c-16 -16 -29 -39 -29 -50 0 -29 40 -70 73 -74 32 -4 137
-102 137 -128 0 -9 9 -28 20 -42 16 -20 20 -40 20 -97 0 -57 -4 -77 -20 -97
-27 -34 -25 -69 5 -98 31 -32 74 -33 103 -2 27 29 28 67 2 100 -16 20 -20 40
-20 100 0 61 3 77 20 92 11 10 20 28 20 39 0 23 112 141 123 130 12 -12 64 17
76 42 16 35 14 48 -10 78 -39 49 -129 24 -129 -37 0 -32 -101 -130 -135 -132
-37 -1 -135 97 -135 136 0 31 -40 69 -72 69 -11 0 -33 -13 -49 -29z m61 -1
c-11 -7 -11 -10 -2 -10 7 0 10 -6 7 -12 -4 -7 0 -5 7 4 13 15 15 15 26 -2 10
-17 9 -18 -6 -13 -15 6 -15 4 1 -15 11 -12 16 -26 11 -33 -4 -7 -3 -10 3 -6
10 6 42 -21 36 -30 -8 -10 -1 -21 15 -19 10 0 16 -6 16 -16 -1 -11 5 -18 17
-18 10 0 21 -5 25 -12 5 -7 2 -8 -7 -3 -8 5 -11 5 -7 0 4 -4 2 -15 -4 -24 -10
-12 -8 -12 8 2 24 20 47 22 76 6 15 -8 19 -8 13 0 -9 15 15 43 31 37 9 -3 11
0 7 11 -4 11 -2 14 5 9 7 -4 12 -1 12 8 0 22 13 20 28 -4 9 -15 9 -19 0 -18
-7 2 -12 -1 -13 -7 -1 -20 -15 -33 -33 -30 -9 1 -16 8 -14 15 1 6 -2 8 -8 5
-8 -5 -6 -12 4 -24 12 -13 13 -20 4 -29 -7 -7 -8 -12 -4 -12 5 0 3 -7 -4 -15
-7 -8 -9 -15 -5 -15 3 0 -3 -12 -14 -26 -17 -22 -20 -37 -16 -98 3 -46 1 -64
-5 -51 -5 12 -9 14 -9 6 -1 -8 10 -29 23 -46 48 -62 -10 -135 -66 -85 -17 15
-21 60 -6 60 4 0 8 7 8 16 0 8 4 13 9 10 12 -8 22 20 15 39 -10 26 -9 125 1
126 6 0 4 3 -2 6 -7 2 -13 11 -13 19 0 9 -4 13 -9 10 -5 -3 -12 1 -15 10 -4
10 -2 13 7 8 9 -5 9 -4 0 6 -9 9 -9 17 -2 26 7 9 5 11 -8 10 -9 0 -23 10 -30
24 -7 14 -17 24 -22 23 -12 -3 -67 69 -63 81 2 5 -3 5 -10 -1 -17 -13 -49 -13
-41 0 4 6 0 8 -10 4 -12 -5 -19 1 -23 18 -7 29 3 78 14 71 4 -3 14 -1 22 5 8
5 20 9 25 9 6 0 3 -5 -5 -10z m430 -10 c12 -12 18 -26 14 -32 -4 -7 -3 -8 4
-4 17 10 15 -16 -3 -41 -10 -14 -24 -20 -40 -18 -14 1 -28 -2 -31 -6 -3 -5
-12 -9 -20 -9 -8 0 -12 5 -9 10 4 6 12 7 18 3 7 -4 7 0 -1 10 -22 27 -22 65 0
71 13 3 17 9 12 17 -4 7 -3 10 4 5 6 -3 13 -2 17 4 9 14 12 13 35 -10z m-89
-93 c-7 -7 -7 -15 1 -24 9 -11 8 -13 -3 -11 -28 6 -39 38 -13 38 9 0 12 5 8
12 -5 7 -3 8 5 3 9 -5 10 -10 2 -18z"/>
<path d="M315 650 c-3 -5 -1 -10 4 -10 6 0 11 5 11 10 0 6 -2 10 -4 10 -3 0
-8 -4 -11 -10z"/>
<path d="M643 755 c0 -8 4 -12 9 -9 5 3 6 10 3 15 -9 13 -12 11 -12 -6z"/>
<path d="M566 717 c3 -10 9 -15 12 -12 3 3 0 11 -7 18 -10 9 -11 8 -5 -6z"/>
<path d="M411 272 c-7 -13 -6 -19 2 -19 7 0 13 9 13 19 0 23 -3 23 -15 0z"/>
<path d="M370 166 c0 -2 7 -7 16 -10 8 -3 12 -2 9 4 -6 10 -25 14 -25 6z"/>
</g>
</svg>
